<?xml version="1.0" standalone="no"?>
<!DOCTYPE svg PUBLIC "-//W3C//DTD SVG 20010904//EN"
 "http://www.w3.org/TR/2001/REC-SVG-20010904/DTD/svg10.dtd">
<svg version="1.0" xmlns="http://www.w3.org/2000/svg"
 width="700.000000pt" height="700.000000pt" viewBox="0 0 700.000000 700.000000"
 preserveAspectRatio="xMidYMid meet">
<metadata>
Created by potrace 1.14, written by Peter Selinger 2001-2017
</metadata>
<g transform="translate(0.000000,700.000000) scale(0.100000,-0.100000)"
fill="#000000" stroke="none">
<path d="M3397 6761 c-31 -20 -146 -90 -256 -156 -110 -66 -197 -123 -193
-127 4 -3 21 -14 39 -25 37 -21 263 -151 302 -173 14 -8 46 -27 71 -41 25 -15
61 -36 80 -47 19 -10 76 -43 125 -72 50 -29 106 -62 125 -72 62 -35 807 -467
1025 -593 l210 -122 5 -1140 5 -1140 247 151 247 151 1 1156 0 1156 -22 11
c-24 12 -60 32 -213 122 -49 29 -115 66 -145 83 -30 16 -67 38 -82 49 -14 10
-28 18 -31 18 -3 0 -38 19 -79 43 -40 24 -93 55 -118 69 -25 14 -202 117 -395
228 -192 111 -370 214 -395 228 -25 14 -99 57 -165 95 -66 38 -145 83 -175
100 -30 17 -71 40 -90 52 -57 35 -63 35 -123 -4z"/>
<path d="M2520 6197 c-19 -7 -96 -49 -170 -92 -74 -43 -148 -86 -163 -94 -16
-9 -36 -20 -45 -26 -35 -21 -886 -505 -957 -545 -16 -9 -97 -54 -180 -100
-255 -141 -335 -190 -352 -216 -14 -21 -16 -58 -17 -227 0 -185 7 -305 20
-349 6 -19 6 -19 124 49 25 14 311 174 635 355 325 182 624 349 665 373 41 23
104 58 140 78 36 19 142 79 235 132 94 53 179 97 190 97 11 0 58 -22 105 -49
47 -28 274 -158 505 -290 231 -133 436 -250 455 -261 19 -12 46 -27 60 -34 43
-24 732 -419 790 -454 l55 -33 7 37 c13 65 7 318 -8 343 -1 3 -6 37 -9 75 -12
139 -16 159 -33 175 -9 9 -100 63 -202 120 -102 56 -219 121 -260 144 -41 24
-97 55 -125 70 -27 16 -158 89 -290 163 -132 74 -260 146 -285 160 -25 14
-184 104 -355 200 -170 97 -331 184 -358 194 -54 21 -127 23 -177 5z"/>
<path d="M5821 5407 c-7 -28 -10 -380 -11 -1085 l0 -1042 -24 -53 c-12 -28
-38 -66 -57 -82 -19 -17 -117 -77 -219 -134 -102 -58 -218 -124 -257 -148 -40
-24 -74 -43 -77 -43 -2 0 -53 -29 -114 -64 -61 -36 -131 -76 -154 -89 -268
-153 -927 -534 -972 -564 -33 -21 -66 -47 -73 -59 -12 -19 -9 -22 45 -51 31
-17 95 -52 141 -78 103 -57 243 -128 293 -148 29 -12 39 -13 55 -2 21 14 522
303 603 348 30 16 60 33 65 37 6 4 127 75 270 157 284 163 828 477 940 541
l70 41 0 1149 0 1149 -75 40 c-41 21 -133 71 -205 111 -71 39 -153 80 -181 91
l-52 20 -11 -42z"/>
<path d="M2540 5181 c-30 -16 -223 -126 -428 -245 -205 -119 -378 -216 -383
-216 -5 0 -9 -3 -9 -7 0 -5 -10 -13 -23 -19 -12 -6 -173 -97 -357 -203 -184
-107 -351 -202 -370 -213 -19 -11 -90 -52 -158 -90 -67 -39 -131 -81 -141 -93
-17 -23 -18 -75 -17 -1161 l1 -1136 55 -30 c30 -16 111 -60 180 -97 241 -132
278 -151 286 -151 5 0 9 497 9 1138 l0 1137 265 154 c146 84 355 205 465 269
110 63 227 131 260 150 33 19 79 45 102 58 23 13 92 53 153 89 61 36 114 65
117 65 2 0 17 8 31 19 15 10 47 29 72 43 25 14 152 87 283 163 209 121 236
139 220 150 -10 7 -65 37 -123 68 -58 30 -134 72 -170 92 -159 93 -164 95
-215 94 -35 0 -67 -8 -105 -28z"/>
<path d="M1995 3877 c-22 -11 -89 -52 -150 -92 -60 -40 -130 -84 -155 -98 -79
-46 -122 -98 -138 -166 -7 -31 -7 -240 2 -611 4 -151 9 -365 11 -475 2 -110 7
-310 10 -445 3 -135 8 -342 10 -459 4 -159 9 -220 19 -236 11 -17 173 -117
291 -181 11 -5 106 -60 210 -121 105 -61 206 -120 225 -131 19 -10 170 -97
335 -192 165 -95 318 -183 340 -196 22 -12 103 -59 180 -104 220 -130 274
-160 303 -171 42 -16 106 -13 148 9 45 22 425 250 437 262 5 4 -18 23 -50 41
-32 18 -177 102 -323 187 -146 85 -284 165 -307 178 -23 13 -92 53 -153 89
-61 36 -113 65 -115 65 -2 0 -24 14 -48 30 -25 17 -48 30 -51 30 -3 0 -34 17
-68 38 -35 21 -88 52 -118 69 -30 17 -138 79 -240 138 -102 60 -198 116 -213
124 -16 9 -36 21 -46 26 -9 6 -69 41 -134 78 l-117 69 -1 191 c-3 722 -13
1427 -24 1622 -2 44 -7 141 -10 215 -6 134 -13 233 -18 235 -1 1 -20 -7 -42
-18z"/>
<path d="M6355 2471 c-6 -5 -167 -99 -360 -209 -192 -110 -364 -208 -382 -219
-172 -99 -350 -199 -360 -201 -7 -2 -13 -8 -13 -13 0 -5 -4 -9 -8 -9 -5 0
-123 -66 -263 -146 -140 -80 -272 -156 -294 -169 -22 -12 -95 -54 -162 -93
l-123 -70 -262 150 c-145 82 -285 162 -313 178 -27 15 -112 65 -189 109 -76
45 -139 81 -141 81 -1 0 -91 52 -200 115 -108 63 -199 115 -201 115 -3 0 -21
11 -42 23 -20 13 -57 35 -82 49 -25 14 -136 78 -248 142 -112 64 -206 116
-208 116 -3 0 -22 11 -42 25 -20 14 -40 25 -44 25 -4 0 -6 -134 -5 -297 l2
-297 550 -318 c303 -175 564 -325 580 -333 17 -9 50 -28 75 -44 25 -15 70 -41
100 -58 30 -16 154 -88 275 -158 121 -71 245 -142 275 -158 30 -17 72 -41 92
-54 21 -13 40 -23 42 -23 5 0 193 108 1126 645 294 169 553 318 575 331 22 12
94 54 160 92 l120 70 0 289 c-1 276 -7 336 -30 314z"/>
</g>
</svg>
