<?xml version="1.0" encoding="UTF-8"?>
<svg data-bbox="25.662 21.136 587.318 56.139" viewBox="0 0 638 100" xmlns="http://www.w3.org/2000/svg" data-type="ugc">
    <g>
        <path d="M390.3 76.1c-1.6.6-2.5.6-3.6 0-1.6-9.7-3.2-19.4-4.9-29.2-.2 0-.4 0-.6.1v28.5c-1.3 1.4-2.4.9-3.8.8V31.8c2.7-.4 5.4-.3 8.3-.1 2.6 8.5 2.9 17.5 5.2 27.2 2-9.5 3.8-18.1 5.7-26.9 2.6-.8 5.3-.4 8.4-.3V76c-2.1 1.1-4.6.6-7.5.4V48.1c-3.6 9.1-4.6 18.7-7.2 28z" fill="#0795d1"/>
        <path d="M51 39.3c-3.2.5-5.8.5-8.8 0 0-4-.1-7.8 0-11.5 0-1.9-.6-3.3-2.3-4-2.8-1.2-5.4.4-5.5 3.6-.2 3.3 0 6.7-.1 10 0 2.2 1.3 3.7 2.6 5.2 3.9 4.3 7.7 8.6 11.8 12.8 1.6 1.7 2.4 3.4 2.3 5.8-.1 2.7.1 5.3-.1 8-.2 4.1-1.7 6.1-5.7 7.1-4.7 1.3-9.5 1.3-14.3 0-3.6-.9-4.8-2.7-4.9-6.4-.1-4 0-7.9 0-12.2 2.8-.5 5.3-.5 8.2 0 0 4.1-.1 8.1 0 12.1.2 3.7 1.8 5.1 4.9 4.6 1.6-.2 2.8-1 2.8-2.8V60.1c0-1.5-.9-2.3-1.9-3.3-4-4.4-8-8.9-11.9-13.3-.4-.5-.9-1-1.3-1.5-1.3-1.8-1.6-15.8-.3-17.5 1.2-1.7 3-2.7 5-2.9 4.3-.4 8.7-.5 13 0 3.9.4 6 2.7 6.1 6.5.5 3.5.4 7.2.4 11.2z" fill="#0695d2"/>
        <path d="M604.2 72.7V56.8c2.9-.3 5.5-.5 8.3.2.8 5.2.5 10.3-.3 15.4-.3 1.8-1.8 2.7-3.4 3.3-5.8 2-11.7 2.2-17.5-.1-2.6-1-3.3-2.9-3.3-5.5.1-6 0-12 0-18 0-7.8.2-15.7-.1-23.5-.2-4.5 2.6-6.9 6.5-7.2 4-.3 8-.4 12 0 4.6.5 6.1 2.3 6 6.8-.1 3.8 1 7.6.4 11.7-2.6 1.1-5.4.4-8.6.5 0-4.2.1-8.1 0-12.1-.1-3.3-1.2-4.6-3.7-4.8-2.7-.1-4.1 1.4-4.1 4.9 0 13.5-.1 27 0 40.5-.1 5.7 2.2 6.8 7.8 3.8z" fill="#0695d3"/>
        <path d="M412.1 32.1c9.8-1.4 17-.7 22.1 2.2-.2 5.9.8 12-.6 18.1-.2.9 0 1.5.1 2.3 1.2 5.9.4 11.9.5 17.9 0 1.5-.8 2.5-2.2 2.9-1.4.4-2.7 1.2-4.3 1.2-5-.1-10 0-15.6 0V32.1z" fill="#0695d2"/>
        <path d="M289.9 21.5h17.5c2.4 0 4.5 1 6.8 2.9 0 7.9.1 16.2-.1 24.5 0 2.7-1.8 4.2-5.1 4.4-3.5.3-6.9.1-10.9.1v22.9c-2.9.4-5.3.3-8.3 0V48.9c.1-8.9.1-17.9.1-27.4z" fill="#0496d4"/>
        <path d="M112.5 32.3c2.9-1 5.5-.6 8.4-.5v38.5c0 3.3 1 4.3 3.4 4.2 1.5-.1 2.6-.8 2.8-2.3.2-1.1.1-2.3.1-3.5V32.1c2.4-.8 4.8-.5 7-.3 1.2 1 .9 2 .9 3v35c0 5-1.5 6.6-6.4 6.8-3.3.2-6.6.8-9.9.1-4.6-1-5.9-2.3-5.9-7V38.2c.1-2 .1-3.9-.4-5.9z" fill="#0795d0"/>
        <path d="M230.1 58.5V32.3c1.3-.8 2.4-.8 3.6 0v44c-2.3.7-4.6.2-7.4.3-2.7-9.2-5.3-18.5-8-27.7-.3.1-.6.1-1 .2v26.5c-1.4 1.4-2.5 1-3.8.7v-44c2.6-1.1 5.3-.5 8.1-.6 2.6 9.1 5.1 18.1 7.7 27.1.3-.1.6-.2.8-.3z" fill="#0797d1"/>
        <path d="M477 75.8c-.7.9-1.4.8-2.1.8-5.2.2-5.4 0-6.7-5.1-2-7.5-4.2-14.9-6.7-22.4-.7 8.9-.4 17.8-.6 26.4-1.2 1.2-2.3 1.1-3.8.3V32c2.2-1.1 4.8-.4 7.7-.5 3.4 8.3 4.6 17.2 8.4 25.4V32.8c1.3-1.4 2.4-1.5 3.8-.9v43.9z" fill="#0896cf"/>
        <path d="M483.8 34.2c6.4-3.6 12.6-3.3 18.8-1.6 2.3.6 3.6 2.1 3.4 4.8-.2 3.1 0 6.3 0 9.7-2.4.8-4.9.3-7.8.4v-12c-1.9-1.8-3.5-2.4-5.4-1.4-1.8 1-1.5 2.8-1.6 4.4V70c0 4.7 1.4 5.4 6.5 3.3V57.6c-.1-.1-3.6-2.5-4.1-2.9h12.2V72c0 1.9-1.4 3-3 3.6-5.3 1.9-10.7 1.8-16.1.2-1.9-.6-2.8-1.9-3.1-4-.6-3.8.1-7.6.1-11.4.1-8.6.1-17.3.1-26.2z" fill="#0695d2"/>
        <path d="M240.9 61c2.9-.6 5-.5 7.2-.2 2.2 4-.6 8 .7 12.1.6.9 1.7 1.5 3.1 1.6 1.9.1 3.3-.6 3.4-2.7.1-2.8 0-5.7 0-8.5 0-1.7-1.3-2.6-2.4-3.7-3.1-3-6.1-6.2-9.3-9-2-1.8-2.9-3.9-2.7-6.6.2-2.2.1-4.3 0-6.5-.1-2.7 1.2-4.4 3.8-5.1 5.1-1.3 10.2-1.3 15.2.1 2.1.6 3.3 2.1 3.3 4.4v10c-2.7.6-5 .3-7.5.2-1-3.1-.2-6.2-.4-9.3-.2-3.2-.7-4-3-4.2-2.5-.2-3.6 1-3.9 4-.5 5.6.2 10.6 5.4 14 1.4.9 2.4 2.3 3.5 3.5 6.4 6.4 6.8 7.3 5.9 16.2-.3 2.8-1.4 4.5-4.1 4.9-4.4.7-8.9 1.3-13.3.2-3.7-.9-4.7-2.1-4.8-5.8-.2-3.1-.1-6.3-.1-9.6z" fill="#0996d1"/>
        <path d="M560.6 21.6h8.5v51.9h12.4c.8 2.3-.1 3-1.7 3.1h-19.2v-55z" fill="#0e96d1"/>
        <path d="M533.3 21.6h8.5v51.6c4.2 1 8.2 0 12 .7.7 2.1-.3 2.7-1.9 2.7h-18.6v-55z" fill="#0a97d0"/>
        <path d="M186.8 33.3c5.5-2.9 11.2-2.2 16.8-.7 2.7.7 3.4 2.8 3.3 5.4-.1 6.1 0 12.3 0 18.4 0 4.6.1 9.3 0 13.9-.1 4-.8 5.1-4.5 6-4.9 1.2-9.7 1.6-14.4-.8 1.6-1.4.6-5.7 4.8-4.2 3.1 2 4.7.9 4.8-2.6.2-9.6.1-19.2 0-28.8 0-3.8-2.3-4.8-5.5-4.6-1.8-.4-3.9-.3-5.3-2z" fill="#1196cd"/>
        <path d="M341.7 75.3c-4.1 1.6-13.2 1.8-19.8.8V32.2c2.2-1.1 4.8-.3 7.9-.4v42c3.9 1.3 7.7-.4 11.9 1.5z" fill="#0c98d1"/>
        <path d="M96.1 73.9c4.1.9 7.7-.4 11.1 1-2.2 2-9 2.4-18.9 1.3V31.9c2.5-.5 4.9-.3 7.8-.2v42.2z" fill="#0897d1"/>
        <path d="M366.4 75.5c-5.1 2.3-10.4 1.7-15.5.6-2.9-.7-3.8-3.2-3.8-6.3.1-12.5.1-25 .1-37.7 2.5-1.1 5.1-.4 8-.5v37.3c0 5.8 1.5 6.7 6.9 4.2 1.5.6 3.2 1 4.3 2.4z" fill="#0d96d0"/>
        <path d="M156.3 76.3c-3 .3-5.3.5-7.5 0 .1-14 .1-27.7 0-41.1-3.1-1.6-5.9 0-8.5-1.5.6-2.7 2.6-2.1 4.3-2.2 17.2-.4 17.2-.4 19.2 2.2-1.1 1.1-2.5.5-3.7.6-1.1.1-2.3 0-3.9 0 .1 14.1.1 27.8.1 42z" fill="#0b96d1"/>
        <path d="M169.7 76.3V32.2c2.5-1.1 5.1-.8 7.9-.2v44.2c-2.5.7-5.2.6-7.9.1z" fill="#139dd5"/>
        <path d="M449 76.3c-2.7.5-5 .4-7.5 0V31.9c2.6-.4 5-.3 7.5-.1v44.5z" fill="#0196d2"/>
        <path d="M366.4 75.5c-1.6-.5-4.2.9-4.3-2.3V32.1c2.2-.9 4.8-.6 7.1-.2.3.6.6.8.6 1.1.1 12.5.1 24.9.1 37.4 0 2.6-.7 4.6-3.5 5.1z" fill="#0897d1"/>
        <path d="M186.8 33.3c1.7.7 4.1-1 5.4 1.4 1.3 1.3 1.4 2.9 1.4 4.6.1 9 .1 18.1 0 27.1 0 1.8-.1 3.7-1.6 5-2.9.2-1.9 1.9-1.3 3.5-.7.9-1.8.4-2.7.7-2.8-2.1-3.7-5-3.4-8.3.9-9.6.3-19.2.5-28.8 0-1.7-.1-3.3 1-4.8.2-.4.4-.5.7-.4z" fill="#0796d3"/>
        <path d="M186.1 33.6v25.3c0 2.1-.1 4.2-.7 6.3-.9 3-.4 6.1 2.2 8.5.6.5.5 1.2.5 1.8-2.6-.2-3.8-1.8-3.8-4.3V36.6c0-1.3.1-2.7 1.8-3z" fill="#1196cd"/>
        <path d="M420.2 74.6v-20c2-.3 3.7-.4 5.8.2v18.8c-1.5 1.5-3.4.6-5.8 1z" fill="#f9fbf9"/>
        <path d="M420.3 52.2V33.9c1.9-.5 3.6-.5 5.8.4.5 5.7.3 11.6.1 17.3-2 1-3.7.6-5.9.6z" fill="#f5f9fa"/>
        <path d="M298.3 51.2V24.4c1.9-1.5 3.8-.3 5.7 0 1.5.3 2.1 1.4 2.1 2.9v20.4c0 2.2-1.4 3.3-3.4 3.5-1.3.1-2.7 0-4.4 0z" fill="#f4f9fb"/>
        <path d="M80.3 34.2c-6-3.6-11.9-3.3-17.7-2-4 .9-4.4 1.7-4.4 5.9 0 10.5-.1 20.9 0 31.4 0 4.6 1.5 6.1 5.9 6.9 4 .7 7.9.5 11.8-.1 3.1-.5 4.4-1.9 4.4-5 .1-12.2 0-24.5 0-37.1zm-8 39.2c-4.5 2.1-6.2 1.3-6.2-3.3V37.7c0-1 .1-2 .2-2.8 1.9-1.8 3.7-1.4 6-.2v38.7z" fill="#0696d1"/>
        <path d="M192.1 71.4c.1-12.2.1-24.5.2-36.7.6-.3 1.2-.6 1.8-.7 3.3-.7 4.9.3 4.9 3.6.1 11.2 0 22.5.1 33.7 0 1.7-.5 3-2.3 3.2-2.4.2-4.4-.1-4.7-3.1z" fill="#f1faf9"/>
    </g>
</svg>
