<?xml version="1.0" encoding="UTF-8"?>
<svg data-bbox="27.187 8.6 246.776 283.463" viewBox="0 0 300 300" xmlns="http://www.w3.org/2000/svg" data-type="color">
    <g>
        <path d="M250 66.5c8.3 2.9 14.5 7.9 21.9 11.1v98.6c-27.8 16-56 32.3-84.5 48.7-7.8-3.2-14.9-7.6-22.5-11.8 2.3-3.2 5.7-4.4 8.6-6.1 22.9-13.2 45.8-26.6 68.8-39.5 5.1-2.8 6.9-6 6.8-11.9-.3-26.5-.1-52.9-.1-79.4.2-2.8-.3-5.8 1-9.7z" fill="#232021" data-color="1"/>
        <path d="M50.7 235.2C42 230.5 35 226.8 28 222.9v-97.5c1.1-1.8 3-2.7 4.8-3.7 25-14.4 50-28.7 74.9-43.2 3.7-2.2 6.7-2.8 10.6-.3 5.2 3.4 10.8 6.1 17.7 9.9-29 16.7-56.8 32.8-85.2 49.2-.1 32-.1 64-.1 97.9z" fill="#232021" data-color="1"/>
        <path d="M103.4 219.6V194c28.4 16 56.1 32.3 84.7 48.5 28-16.1 56.3-32.3 85.1-48.8 1 9.3.8 17.5.6 26.2-28.3 16.3-56.6 32.5-85 48.9-28.3-16.3-56.4-32.5-85.4-49.2z" fill="#231f20" data-color="2"/>
        <path d="M175.1 279.7c-7.2 4.3-12.6 7.3-17.8 10.7-3.4 2.2-6.3 2.2-9.9.1-17.6-10.3-35.3-20.4-53-30.6-8.5-4.9-16.9-9.8-25.5-14.8-.2-.7-.8-1.5-.8-2.4-.7-29.7-1.2-59.5-2-89.2-.1-5.4 1.4-8.9 6.3-11.5 4.9-2.5 9-6.6 15.1-9 2.2 32.9 1.7 65.1 2.1 97.1 28.4 16.5 56.2 32.6 85.5 49.6z" fill="#039ad6" data-color="3"/>
        <path d="M197.8 106.6c-28.4-16.3-56.3-32.3-84.4-48.4C85 74.1 57 89.8 28.2 105.9c-1.7-8.5-.7-15.8-.9-23.1-.1-2.8 2-3.9 4.2-5.2 13.7-7.6 27.4-15.3 41-23.1 10.8-6.2 21.7-12.2 32.4-18.6 4.6-2.8 8.4-2.9 13.2-.2 25 14.2 50 28.2 75.1 42.2 1.6.9 3.7 1.7 3.7 3.5.1 8.1 3 16.2.9 25.2z" fill="#049ad6" data-color="4"/>
        <path d="M211.2 71.5c-28.7-16.6-56.4-32.6-85.3-49.3C134 17.3 141 13 148.3 8.6c28.1 16.2 56.2 32.4 84.5 48.7v98.8c-6.7 4.1-13.7 8.4-21.6 13.2V71.5z" fill="#231e20" data-color="5"/>
    </g>
</svg>
